<?xml version="1.0" standalone="no"?>
<!DOCTYPE svg PUBLIC "-//W3C//DTD SVG 20010904//EN"
 "http://www.w3.org/TR/2001/REC-SVG-20010904/DTD/svg10.dtd">
<svg version="1.0" xmlns="http://www.w3.org/2000/svg"
 width="312.000000pt" height="321.000000pt" viewBox="0 0 312.000000 321.000000"
 preserveAspectRatio="xMidYMid meet">
<metadata>
Created by potrace 1.16, written by Peter Selinger 2001-2019
</metadata>
<g transform="translate(0.000000,321.000000) scale(0.100000,-0.100000)"
fill="#000000" stroke="none">
<path d="M995 2550 c-291 -131 -538 -243 -547 -249 -16 -10 -18 -33 -18 -241
l0 -230 35 0 35 0 0 208 0 208 520 233 520 233 520 -233 520 -233 0 -208 0
-208 35 0 35 0 0 229 c0 171 -3 231 -12 238 -20 16 -1087 493 -1101 492 -6 0
-250 -108 -542 -239z"/>
<path d="M1442 2475 c-55 -24 -98 -63 -128 -117 -24 -44 -29 -64 -29 -123 0
-59 5 -79 29 -123 49 -89 124 -132 228 -132 102 1 182 50 229 142 22 44 37
142 23 150 -5 3 -23 3 -40 1 -30 -5 -32 -7 -36 -58 -6 -66 -43 -119 -102 -146
-79 -36 -169 -13 -222 57 -26 33 -29 46 -29 109 0 64 3 76 29 109 38 50 104
80 163 73 40 -4 45 -2 54 21 17 44 6 52 -68 52 -37 -1 -83 -7 -101 -15z"/>
<path d="M1658 2363 l-118 -117 -25 24 -26 24 -25 -25 -25 -25 45 -42 c25 -23
51 -42 58 -42 6 0 73 61 147 135 l136 134 -25 26 -25 25 -117 -117z"/>
<path d="M2252 1923 c-5 -10 -26 -69 -48 -130 -48 -140 -46 -147 50 -151 l67
-3 -3 -52 -3 -52 -37 -3 c-36 -3 -38 -5 -38 -38 l0 -34 115 0 115 0 0 35 c0
34 -1 35 -40 35 l-40 0 0 55 0 55 64 0 c97 0 99 5 48 160 -26 76 -49 131 -58
134 -9 3 -53 6 -99 6 -70 0 -86 -3 -93 -17z m174 -135 l23 -68 -96 0 c-72 0
-94 3 -90 13 2 6 13 38 23 70 l18 58 50 -3 49 -3 23 -67z"/>
<path d="M632 1810 c-18 -11 -37 -32 -42 -46 -6 -14 -10 -106 -10 -204 0 -177
0 -179 -22 -185 -41 -13 -90 -57 -109 -99 -17 -37 -19 -70 -19 -361 0 -237 3
-324 12 -333 16 -16 180 -16 196 0 7 7 12 39 12 75 l0 63 555 0 555 0 0 -63
c0 -36 5 -68 12 -75 14 -14 176 -16 198 -2 13 8 15 55 18 301 2 189 -1 311 -8
346 -13 62 -56 118 -107 139 l-32 14 -3 190 -3 190 -33 32 -32 33 -553 3
c-538 2 -553 2 -585 -18z m1126 -242 l2 -178 -35 0 -35 0 0 80 c0 87 -14 127
-52 154 -33 24 -313 23 -347 0 -35 -25 -51 -75 -51 -159 l0 -75 -34 0 -34 0
-4 96 c-3 94 -4 96 -36 125 l-32 29 -145 0 c-87 0 -154 -5 -169 -12 -44 -19
-58 -54 -64 -150 l-5 -88 -33 0 -34 0 0 168 c0 118 4 172 12 180 9 9 141 12
553 10 l540 -3 3 -177z m-684 -4 c13 -5 16 -23 16 -90 l0 -84 -145 0 -145 0 0
78 c0 47 5 83 12 90 13 13 232 18 262 6z m524 -6 c7 -7 12 -43 12 -90 l0 -78
-145 0 -145 0 0 78 c0 47 5 83 12 90 8 8 52 12 133 12 81 0 125 -4 133 -12z
m252 -263 c48 -25 60 -61 60 -175 l0 -100 -700 0 -700 0 0 113 c1 117 4 129
50 160 22 16 77 17 643 17 533 0 622 -2 647 -15z m60 -500 l0 -145 -35 0 -35
0 0 53 c0 95 58 88 -640 85 l-615 -3 -3 -67 -3 -68 -34 0 -35 0 0 145 0 145
700 0 700 0 0 -145z"/>
<path d="M2083 1380 l-23 -9 0 -291 0 -290 35 0 35 0 0 110 0 110 220 0 219 0
3 -107 3 -108 38 -3 37 -3 0 283 c0 161 -4 289 -10 298 -8 13 -51 15 -272 17
-145 1 -273 -2 -285 -7z m487 -180 l0 -110 -220 0 -220 0 0 110 0 110 220 0
220 0 0 -110z"/>
</g>
</svg>
